<?xml version="1.0" encoding="UTF-8" standalone="no"?>
<svg
   xmlns:dc="http://purl.org/dc/elements/1.1/"
   xmlns:cc="http://creativecommons.org/ns#"
   xmlns:rdf="http://www.w3.org/1999/02/22-rdf-syntax-ns#"
   xmlns:svg="http://www.w3.org/2000/svg"
   xmlns="http://www.w3.org/2000/svg"
   id="svg8"
   version="1.1"
   viewBox="0 0 79.374998 79.375002"
   height="300"
   width="300">
  <defs
     id="defs2" />
  <metadata
     id="metadata5">
    <rdf:RDF>
      <cc:Work
         rdf:about="">
        <dc:format>image/svg+xml</dc:format>
        <dc:type
           rdf:resource="http://purl.org/dc/dcmitype/StillImage" />
        <dc:title></dc:title>
      </cc:Work>
    </rdf:RDF>
  </metadata>
  <g
     transform="translate(0,-217.62498)"
     id="layer1">
    <path
       id="path815"
       d="M 15.768902,270.5403 36.852679,239.16962"
       style="display:inline;fill:none;fill-rule:evenodd;stroke:#000000;stroke-width:0.86500001;stroke-linecap:round;stroke-linejoin:round;stroke-miterlimit:4;stroke-dasharray:none;stroke-dashoffset:0;stroke-opacity:1;paint-order:stroke fill markers" />
    <path
       id="path815-7"
       d="m 15.768902,270.5403 25.241515,11.62411"
       style="display:inline;fill:none;fill-rule:evenodd;stroke:#000000;stroke-width:0.86500001;stroke-linecap:round;stroke-linejoin:round;stroke-miterlimit:4;stroke-dasharray:none;stroke-dashoffset:0;stroke-opacity:1;paint-order:stroke fill markers" />
    <path
       id="path815-7-5"
       d="M 41.010417,282.16441 62.407435,261.18586"
       style="display:inline;fill:none;fill-rule:evenodd;stroke:#000000;stroke-width:0.86500001;stroke-linecap:round;stroke-linejoin:round;stroke-miterlimit:4;stroke-dasharray:none;stroke-dashoffset:0;stroke-opacity:1;paint-order:stroke fill markers" />
    <path
       id="path815-7-5-5"
       d="m 36.852679,239.16962 25.554756,22.01624"
       style="display:inline;fill:none;fill-rule:evenodd;stroke:#000000;stroke-width:0.86500001;stroke-linecap:round;stroke-linejoin:round;stroke-miterlimit:4;stroke-dasharray:none;stroke-dashoffset:0;stroke-opacity:1;paint-order:stroke fill markers" />
    <path
       id="path815-7-5-5-4"
       d="m 36.852679,239.16962 4.157738,42.99479"
       style="display:inline;fill:none;fill-rule:evenodd;stroke:#000000;stroke-width:0.86500001;stroke-linecap:round;stroke-linejoin:round;stroke-miterlimit:4;stroke-dasharray:none;stroke-dashoffset:0;stroke-opacity:1;paint-order:stroke fill markers" />
    <path
       id="path815-1"
       d="m 15.768902,270.5403 46.638533,-9.35444"
       style="display:inline;fill:none;fill-rule:evenodd;stroke:#000000;stroke-width:0.66500002;stroke-linecap:butt;stroke-linejoin:round;stroke-miterlimit:4;stroke-dasharray:3.99, 0.66500000000000004;stroke-dashoffset:0;stroke-opacity:0.78431373;paint-order:stroke fill markers" />
    <g
       id="text912"
       style="font-style:normal;font-weight:normal;font-size:10.58333302px;line-height:1.25;font-family:sans-serif;letter-spacing:0px;word-spacing:0px;fill:#000000;fill-opacity:1;stroke:none;stroke-width:0.26458332"
       aria-label="A">
      <path
         id="path1032"
         style="font-style:normal;font-variant:normal;font-weight:normal;font-stretch:normal;font-size:8.46666622px;font-family:'Segoe UI';-inkscape-font-specification:'Segoe UI, Normal';font-variant-ligatures:normal;font-variant-caps:normal;font-variant-numeric:normal;font-feature-settings:normal;text-align:start;writing-mode:lr-tb;text-anchor:start;stroke-width:0.26458332"
         d="m 39.667422,236.80727 h -0.768945 l -0.628385,-1.66192 H 35.75655 l -0.591178,1.66192 h -0.773079 l 2.273762,-5.92832 h 0.719336 z m -1.624706,-2.28617 -0.930176,-2.52594 q -0.04548,-0.12403 -0.09095,-0.39688 h -0.01654 q -0.04134,0.25218 -0.09508,0.39688 l -0.921907,2.52594 z" />
    </g>
    <g
       id="text912-5"
       style="font-style:normal;font-weight:normal;font-size:10.58333302px;line-height:1.25;font-family:sans-serif;letter-spacing:0px;word-spacing:0px;fill:#000000;fill-opacity:1;stroke:none;stroke-width:0.26458332"
       aria-label="B">
      <path
         id="path1029"
         style="font-style:normal;font-variant:normal;font-weight:normal;font-stretch:normal;font-size:8.46666622px;font-family:'Segoe UI';-inkscape-font-specification:'Segoe UI, Normal';font-variant-ligatures:normal;font-variant-caps:normal;font-variant-numeric:normal;font-feature-settings:normal;text-align:start;writing-mode:lr-tb;text-anchor:start;stroke-width:0.26458332"
         d="m 8.6052903,273.80356 v -5.92832 h 1.6867187 q 0.768945,0 1.219564,0.3762 0.450618,0.37621 0.450618,0.97979 0,0.50436 -0.272851,0.87643 -0.272852,0.37207 -0.752409,0.52917 v 0.0165 q 0.599446,0.0703 0.959114,0.45476 0.359668,0.38033 0.359668,0.99218 0,0.76068 -0.545703,1.23197 -0.545703,0.47129 -1.37666,0.47129 z m 0.6945313,-5.29994 v 1.9141 h 0.7110674 q 0.570508,0 0.897103,-0.27285 0.326595,-0.27699 0.326595,-0.77722 0,-0.86403 -1.136881,-0.86403 z m 0,2.53835 v 2.1332 H 10.2424 q 0.611849,0 0.946712,-0.28939 0.338997,-0.28938 0.338997,-0.79374 0,-1.05007 -1.430403,-1.05007 z" />
    </g>
    <g
       id="text912-5-8"
       style="font-style:normal;font-weight:normal;font-size:10.58333302px;line-height:1.25;font-family:sans-serif;letter-spacing:0px;word-spacing:0px;fill:#000000;fill-opacity:1;stroke:none;stroke-width:0.26458332"
       aria-label="C">
      <path
         id="path1026"
         style="font-style:normal;font-variant:normal;font-weight:normal;font-stretch:normal;font-size:8.46666622px;font-family:'Segoe UI';-inkscape-font-specification:'Segoe UI, Normal';font-variant-ligatures:normal;font-variant-caps:normal;font-variant-numeric:normal;font-feature-settings:normal;text-align:start;writing-mode:lr-tb;text-anchor:start;stroke-width:0.26458332"
         d="m 43.300768,290.25336 q -0.657324,0.34726 -1.637109,0.34726 -1.265039,0 -2.025716,-0.81442 -0.760677,-0.81442 -0.760677,-2.13734 0,-1.42213 0.855761,-2.29856 0.855762,-0.87643 2.17041,-0.87643 0.84336,0 1.397331,0.24391 v 0.74 q -0.636654,-0.35553 -1.405599,-0.35553 -1.021126,0 -1.65778,0.68213 -0.632519,0.68213 -0.632519,1.82314 0,1.08314 0.591178,1.72806 0.595313,0.64079 1.558561,0.64079 0.892969,0 1.546159,-0.39687 z" />
    </g>
    <g
       id="text912-5-8-9"
       style="font-style:normal;font-weight:normal;font-size:10.58333302px;line-height:1.25;font-family:sans-serif;letter-spacing:0px;word-spacing:0px;fill:#000000;fill-opacity:1;stroke:none;stroke-width:0.26458332"
       aria-label="D">
      <path
         id="path1023"
         style="font-style:normal;font-variant:normal;font-weight:normal;font-stretch:normal;font-size:8.46666622px;font-family:'Segoe UI';-inkscape-font-specification:'Segoe UI, Normal';font-variant-ligatures:normal;font-variant-caps:normal;font-variant-numeric:normal;font-feature-settings:normal;text-align:start;writing-mode:lr-tb;text-anchor:start;stroke-width:0.26458332"
         d="m 65.539543,263.33289 v -5.92832 h 1.637109 q 3.133659,0 3.133659,2.88974 0,1.37253 -0.872299,2.20762 -0.868164,0.83096 -2.327506,0.83096 z m 0.694531,-5.29994 v 4.67155 h 0.8847 q 1.165821,0 1.814876,-0.62425 0.649056,-0.62425 0.649056,-1.7694 0,-2.2779 -2.422591,-2.2779 z" />
    </g>
    <circle
       r="0.99842763"
       cy="239.17619"
       cx="36.86916"
       id="path968"
       style="fill:#000000;fill-opacity:1;stroke:none;stroke-width:0.66499996;stroke-linecap:butt;stroke-linejoin:round;stroke-miterlimit:4;stroke-dasharray:none;stroke-dashoffset:0;stroke-opacity:1;paint-order:stroke fill markers" />
    <circle
       r="0.99842763"
       cy="270.68637"
       cx="15.765436"
       id="path968-3"
       style="fill:#000000;fill-opacity:1;stroke:none;stroke-width:0.66499996;stroke-linecap:butt;stroke-linejoin:round;stroke-miterlimit:4;stroke-dasharray:none;stroke-dashoffset:0;stroke-opacity:1;paint-order:stroke fill markers" />
    <circle
       r="0.99842763"
       cy="282.01572"
       cx="40.938179"
       id="path968-3-0"
       style="fill:#000000;fill-opacity:1;stroke:none;stroke-width:0.66499996;stroke-linecap:butt;stroke-linejoin:round;stroke-miterlimit:4;stroke-dasharray:none;stroke-dashoffset:0;stroke-opacity:1;paint-order:stroke fill markers" />
    <circle
       r="0.99842763"
       cy="261.1106"
       cx="62.371353"
       id="path968-3-0-8"
       style="fill:#000000;fill-opacity:1;stroke:none;stroke-width:0.66499996;stroke-linecap:butt;stroke-linejoin:round;stroke-miterlimit:4;stroke-dasharray:none;stroke-dashoffset:0;stroke-opacity:1;paint-order:stroke fill markers" />
  </g>
</svg>
